<svg width="100" height="100" viewBox="0 0 100 100" fill="none" xmlns="http://www.w3.org/2000/svg">
<circle cx="50" cy="50" r="34" fill="white"/>
<path fill-rule="evenodd" clip-rule="evenodd" d="M16 50C16 31.2224 31.2224 16 50 16C68.7776 16 84 31.2224 84 50C84 68.7776 68.7776 84 50 84C31.2224 84 16 68.7776 16 50ZM43.2 70.4C46.9556 70.4 50 67.3556 50 63.6V56.8H43.2C39.4444 56.8 36.4 59.8444 36.4 63.6C36.4 67.3556 39.4444 70.4 43.2 70.4ZM36.4 50C36.4 53.7556 39.4444 56.8 43.2 56.8H50V43.2H43.2C39.4444 43.2 36.4 46.2444 36.4 50ZM36.4 36.4C36.4 40.1556 39.4444 43.2 43.2 43.2H50V29.6H43.2C39.4444 29.6 36.4 32.6444 36.4 36.4ZM50 29.6V43.2H56.8C60.5556 43.2 63.6 40.1556 63.6 36.4C63.6 32.6444 60.5556 29.6 56.8 29.6H50ZM63.6 50C63.6 46.2444 60.5556 43.2 56.8 43.2C53.0444 43.2 50 46.2444 50 50C50 53.7556 53.0444 56.8 56.8 56.8C60.5556 56.8 63.6 53.7556 63.6 50Z" fill="black"/>
</svg>
