<svg width="100" height="100" viewBox="0 0 100 100" fill="none" xmlns="http://www.w3.org/2000/svg">
<rect x="17" y="26.75" width="66.25" height="53.75" fill="white"/>
<path d="M76.7143 16H23.2857C19.2634 16 16 19.2634 16 23.2857V76.7143C16 80.7366 19.2634 84 23.2857 84H76.7143C80.7366 84 84 80.7366 84 76.7143V23.2857C84 19.2634 80.7366 16 76.7143 16ZM53.0054 69.0339C53.0054 75.6518 49.1196 78.6723 43.458 78.6723C38.3429 78.6723 35.383 76.0312 33.8652 72.8286L39.0714 69.6866C40.0732 71.4625 40.9839 72.9652 43.1848 72.9652C45.2795 72.9652 46.6152 72.1455 46.6152 68.9429V47.2223H53.0054V69.0339V69.0339ZM68.1232 78.6723C62.1884 78.6723 58.3482 75.8491 56.4813 72.1455L61.6875 69.1402C63.0536 71.3714 64.8446 73.0259 67.9866 73.0259C70.6277 73.0259 72.3277 71.7054 72.3277 69.8687C72.3277 67.683 70.5973 66.9089 67.6679 65.6187L66.0741 64.9357C61.4598 62.9777 58.4089 60.5036 58.4089 55.2973C58.4089 50.5009 62.067 46.858 67.7589 46.858C71.8268 46.858 74.7411 48.2696 76.8357 51.9732L71.8571 55.1607C70.7643 53.2027 69.5804 52.4286 67.7437 52.4286C65.8768 52.4286 64.6929 53.6125 64.6929 55.1607C64.6929 57.0732 65.8768 57.8473 68.6241 59.0464L70.2179 59.7295C75.6518 62.0518 78.7027 64.4348 78.7027 69.7777C78.7027 75.5152 74.1795 78.6723 68.1232 78.6723V78.6723Z" fill="black"/>
</svg>
