<svg width="100" height="100" viewBox="0 0 100 100" fill="none" xmlns="http://www.w3.org/2000/svg">
<circle cx="49.5" cy="49.75" r="33" fill="#FFFEFE"/>
<path d="M38.7444 69.7535C38.7444 70.0347 38.429 70.2597 38.0315 70.2597C37.579 70.3019 37.2637 70.0769 37.2637 69.7535C37.2637 69.4723 37.579 69.2473 37.9766 69.2473C38.3879 69.2051 38.7444 69.4301 38.7444 69.7535ZM34.4806 69.1208C34.3847 69.402 34.6589 69.7254 35.0702 69.8097C35.4266 69.9503 35.8379 69.8097 35.9202 69.5285C36.0024 69.2473 35.7419 68.9239 35.3306 68.7974C34.9742 68.6989 34.5766 68.8395 34.4806 69.1208ZM40.5403 68.8817C40.1427 68.9801 39.8685 69.2473 39.9097 69.5707C39.9508 69.8519 40.3073 70.0347 40.7185 69.9363C41.1161 69.8379 41.3903 69.5707 41.3492 69.2895C41.3081 69.0223 40.9379 68.8395 40.5403 68.8817ZM49.5613 15C30.546 15 16 29.8062 16 49.3088C16 64.9025 25.5694 78.2463 39.2379 82.9427C40.9927 83.2661 41.6097 82.1553 41.6097 81.2413C41.6097 80.3695 41.5685 75.5607 41.5685 72.6079C41.5685 72.6079 31.9718 74.717 29.9565 68.4177C29.9565 68.4177 28.3935 64.326 26.1452 63.2714C26.1452 63.2714 23.0056 61.0638 26.3645 61.106C26.3645 61.106 29.7782 61.3872 31.6565 64.7337C34.6589 70.1613 39.6903 68.6005 41.6508 67.6725C41.9661 65.4227 42.8573 63.8619 43.8444 62.9339C36.1806 62.0621 28.4484 60.9232 28.4484 47.3965C28.4484 43.5297 29.4903 41.5893 31.6839 39.1146C31.3274 38.2006 30.1621 34.4323 32.0403 29.5672C34.9056 28.6532 41.5 33.3637 41.5 33.3637C44.2419 32.5762 47.1895 32.1685 50.1097 32.1685C53.0298 32.1685 55.9774 32.5762 58.7194 33.3637C58.7194 33.3637 65.3137 28.6392 68.179 29.5672C70.0573 34.4463 68.8919 38.2006 68.5355 39.1146C70.729 41.6034 72.0726 43.5438 72.0726 47.3965C72.0726 60.9654 63.9976 62.0481 56.3339 62.9339C57.5952 64.0447 58.6645 66.1539 58.6645 69.4582C58.6645 74.1968 58.6234 80.0602 58.6234 81.2132C58.6234 82.1272 59.254 83.238 60.9952 82.9146C74.7048 78.2463 84 64.9025 84 49.3088C84 29.8062 68.5766 15 49.5613 15ZM29.3258 63.4964C29.1476 63.637 29.1887 63.9604 29.4218 64.2275C29.6411 64.4525 29.9565 64.5509 30.1347 64.3681C30.3129 64.2275 30.2718 63.9041 30.0387 63.637C29.8194 63.412 29.504 63.3136 29.3258 63.4964ZM27.8452 62.3574C27.7492 62.5402 27.8863 62.7652 28.1605 62.9058C28.3798 63.0464 28.654 63.0042 28.75 62.8074C28.846 62.6246 28.7089 62.3996 28.4347 62.259C28.1605 62.1746 27.9411 62.2168 27.8452 62.3574ZM32.2871 67.3631C32.0677 67.5459 32.15 67.9678 32.4653 68.2349C32.7806 68.5583 33.1782 68.6005 33.3565 68.3755C33.5347 68.1927 33.4524 67.7709 33.1782 67.5037C32.8766 67.1803 32.4653 67.1382 32.2871 67.3631ZM30.7242 65.2962C30.5048 65.4368 30.5048 65.8024 30.7242 66.1258C30.9435 66.4492 31.3137 66.5898 31.4919 66.4492C31.7113 66.2664 31.7113 65.9008 31.4919 65.5774C31.3 65.254 30.9435 65.1134 30.7242 65.2962Z" fill="black"/>
</svg>
